<?xml version="1.0" encoding="UTF-8"?>
<svg id="Layer_1" data-name="Layer 1" xmlns="http://www.w3.org/2000/svg" viewBox="0 0 520 250">
  <defs>
    <style>
      .cls-1 {
        fill: #000635;
      }

      .cls-2 {
        fill: #f09;
      }
    </style>
  </defs>
  <g>
    <path class="cls-1" d="M294.95,200.39c-17.95,0-32.17-5-42.66-15.02-10.49-10.01-15.74-24.33-15.74-42.97v-34.79c0-18.64,5.25-32.96,15.74-42.97,10.49-10.01,24.71-15.02,42.66-15.02s31.58,4.87,41.32,14.6c9.73,9.73,14.6,23.09,14.6,40.07v1.24h-26.92v-2.07c0-8.56-2.38-15.6-7.14-21.12-4.76-5.52-12.05-8.28-21.85-8.28s-17.26,2.97-22.78,8.91c-5.52,5.94-8.28,14.01-8.28,24.23v35.62c0,10.08,2.76,18.12,8.28,24.13,5.52,6.01,13.12,9.01,22.78,9.01s17.09-2.8,21.85-8.39c4.76-5.59,7.14-12.6,7.14-21.02v-3.73h26.92v2.9c0,16.98-4.87,30.34-14.6,40.07s-23.51,14.6-41.32,14.6Z"/>
    <path class="cls-1" d="M424.11,200.39c-9.94,0-18.95-2.25-27.03-6.73-8.08-4.49-14.5-11.04-19.26-19.67-4.76-8.63-7.14-19.16-7.14-31.58v-34.79c0-18.64,5.25-32.96,15.74-42.97,10.49-10.01,24.71-15.02,42.66-15.02s31.58,4.73,41.32,14.19c9.73,9.46,14.6,22.26,14.6,38.42v.83h-26.92v-1.66c0-5.11-1.07-9.73-3.21-13.88-2.14-4.14-5.35-7.42-9.63-9.84-4.28-2.41-9.67-3.62-16.15-3.62-9.67,0-17.26,2.97-22.78,8.91-5.52,5.94-8.28,14.01-8.28,24.23v35.62c0,10.08,2.76,18.19,8.28,24.33,5.52,6.15,13.25,9.22,23.2,9.22s17.19-2.62,21.75-7.87c4.56-5.25,6.83-11.87,6.83-19.88v-2.07h-34.38v-23.2h61.3v74.14h-25.27v-13.88h-3.73c-.97,2.35-2.52,4.83-4.66,7.46-2.14,2.62-5.35,4.83-9.63,6.63-4.28,1.79-10.15,2.69-17.6,2.69Z"/>
  </g>
  <path class="cls-1" d="M194.69,123.79h0s-50.62-74.18-50.62-74.18h0s-19.76,0-19.76,0V123.79h-18.93S54.76,49.61,54.76,49.61h0s0,0,0,0h-19.76V126.21h19.76l47.17,69.12c2.16,3.17,5.75,5.06,9.58,5.06h13.63V126.21h18.93l47.17,69.12c2.16,3.17,5.75,5.06,9.58,5.06h15.95V123.79h-22.08Z"/>
  <path class="cls-2" d="M202.23,111.76h14.38V57.87c0-4.56-3.69-8.25-8.25-8.25h-15.97v47.81l9.85,14.33Z"/>
</svg>